<svg width="12" height="12" viewBox="0 0 12 12" fill="none" xmlns="http://www.w3.org/2000/svg">
<g clip-path="url(#clip0_11_70)">
<path d="M10.875 12C11.4963 12 12 11.4963 12 10.875V4.125C12 3.50367 11.4963 3 10.875 3H4.125C3.50367 3 3 3.50367 3 4.125V10.875C3 11.4963 3.50367 12 4.125 12H10.875ZM4.125 2.25C3.09113 2.25 2.25 3.09113 2.25 4.125V9H1.125C0.503672 9 0 8.49633 0 7.875V1.125C0 0.503672 0.503672 0 1.125 0H7.875C8.49633 0 9 0.503672 9 1.125V2.25H4.125Z" fill="#3C424D"/>
</g>
<defs>
<clipPath id="clip0_11_70">
<rect width="12" height="12" fill="white" transform="matrix(1 0 0 -1 0 12)"/>
</clipPath>
</defs>
</svg>
