<svg width="33" height="37" viewBox="0 0 33 37" fill="none" xmlns="http://www.w3.org/2000/svg">
<g filter="url(#filter0_d_10_56)">
<path d="M26.7464 15.033C25.9682 15.033 25.4493 15.5518 25.4493 16.33C25.4493 21.3885 21.4285 25.4094 16.37 25.4094C16.1106 25.4094 15.7215 25.4094 15.4621 25.4094C15.2027 25.4094 15.073 25.4094 14.8136 25.2797C14.5541 25.2797 14.4244 25.15 14.165 25.15C14.0353 25.15 13.9056 25.0203 13.7759 25.0203C12.868 24.7608 11.96 24.242 11.1818 23.7232C11.0521 23.5935 10.9224 23.5935 10.9224 23.4638C10.7927 23.3341 10.663 23.2044 10.5333 23.2044C10.2739 23.0747 10.0145 22.8153 9.88477 22.6856C9.75507 22.5559 9.75507 22.5559 9.62536 22.4262L11.96 22.037C12.6086 21.9073 13.1274 21.2588 12.9977 20.4806C12.868 19.8321 12.2195 19.3132 11.4412 19.443L7.16097 20.2212L6.12333 20.4806C5.73422 20.4806 5.47481 20.74 5.3451 20.9994C5.2154 21.2588 5.08569 21.6479 5.08569 21.9073L6.12333 27.3549C6.25304 28.0035 6.77186 28.3926 7.42038 28.3926C7.55008 28.3926 7.55008 28.3926 7.67979 28.3926C8.32831 28.2629 8.84713 27.6144 8.71743 26.8361L8.32831 24.6311C8.58772 24.8906 8.97684 25.15 9.23625 25.4094C9.23625 25.4094 9.23625 25.4094 9.36595 25.4094C9.49566 25.5391 9.62536 25.6688 9.75507 25.6688C10.0145 25.9282 10.2739 26.0579 10.663 26.1876C10.9224 26.7064 11.3115 26.8361 11.7006 27.0955H11.8303C11.96 27.2252 12.2195 27.2252 12.4789 27.3549C12.9977 27.4846 13.5165 27.6144 13.9056 27.7441C14.165 27.7441 14.4244 27.8738 14.6838 27.8738H14.8136C14.9433 27.8738 15.2027 27.8738 15.3324 27.8738C15.5918 27.8738 15.9809 27.8738 16.2403 27.8738C22.7255 27.8738 27.9137 22.6856 27.9137 16.2003C28.0434 15.5518 27.3949 15.033 26.7464 15.033Z" fill="#4E5460"/>
<path d="M6.12373 17.6271C6.90196 17.6271 7.42078 17.1083 7.42078 16.3301C7.42078 11.2716 11.4416 7.25072 16.5001 7.25072C16.7595 7.25072 17.1486 7.25072 17.408 7.25072C17.6675 7.25072 17.7972 7.25072 18.0566 7.38042C18.316 7.38042 18.4457 7.51013 18.7051 7.51013C18.8348 7.51013 18.9645 7.63983 19.0942 7.63983C20.0021 7.89924 20.9101 8.28836 21.6883 8.93688C21.818 9.06658 21.9477 9.06658 22.0774 9.19629C22.2071 9.32599 22.3368 9.32599 22.4665 9.4557C22.5962 9.5854 22.7259 9.84481 22.9854 9.97452C23.1151 10.1042 23.1151 10.1042 23.2448 10.2339L20.9101 10.623C20.2616 10.7527 19.7427 11.4013 19.8724 12.1795C20.0021 12.828 20.521 13.2171 21.1695 13.2171C21.2992 13.2171 21.2992 13.2171 21.4289 13.2171L26.8765 12.1795C27.525 12.0498 28.0438 11.4013 27.9141 10.623L26.8765 5.30514C26.7468 4.65662 26.0983 4.1378 25.32 4.26751C24.6715 4.39721 24.1527 5.04573 24.2824 5.82396L24.6715 8.02895C24.4121 7.76954 24.023 7.38042 23.7636 7.25072C23.7636 7.25072 23.7636 7.25072 23.6339 7.25072C23.5042 7.12101 23.3745 6.99131 23.2448 6.99131C22.9854 6.7319 22.7259 6.60219 22.3368 6.34278C21.9477 6.08337 21.5586 5.95367 21.1695 5.69426H21.0398C20.9101 5.56455 20.6507 5.56455 20.3913 5.43485C19.8724 5.30514 19.3536 5.17544 18.9645 5.04573C18.7051 5.04573 18.4457 4.91603 18.1863 4.91603H18.0566C17.9269 4.91603 17.6675 4.91603 17.5378 4.91603C17.2783 4.91603 16.8892 4.91603 16.6298 4.91603C10.1446 4.91603 4.95639 10.1042 4.95639 16.5895C4.82668 17.1083 5.3455 17.6271 6.12373 17.6271Z" fill="#4E5460"/>
</g>
<defs>
<filter id="filter0_d_10_56" x="-3.06445" y="0.765442" width="39.1292" height="39.1292" filterUnits="userSpaceOnUse" color-interpolation-filters="sRGB">
<feFlood flood-opacity="0" result="BackgroundImageFix"/>
<feColorMatrix in="SourceAlpha" type="matrix" values="0 0 0 0 0 0 0 0 0 0 0 0 0 0 0 0 0 0 127 0" result="hardAlpha"/>
<feOffset dy="4"/>
<feGaussianBlur stdDeviation="2"/>
<feComposite in2="hardAlpha" operator="out"/>
<feColorMatrix type="matrix" values="0 0 0 0 0 0 0 0 0 0 0 0 0 0 0 0 0 0 0.25 0"/>
<feBlend mode="normal" in2="BackgroundImageFix" result="effect1_dropShadow_10_56"/>
<feBlend mode="normal" in="SourceGraphic" in2="effect1_dropShadow_10_56" result="shape"/>
</filter>
</defs>
</svg>
