<svg width="68" height="68" viewBox="0 0 68 68" fill="none" xmlns="http://www.w3.org/2000/svg">
<path d="M27.8699 14.6694C27.9949 18.0299 27.4251 21.3801 26.1962 24.5103C24.9673 27.6405 23.1057 30.4835 20.7278 32.8614C18.3499 35.2393 15.507 37.1009 12.3767 38.3298C9.24646 39.5587 5.89631 40.1285 2.5358 40.0035C5.89631 39.8784 9.24646 40.4482 12.3767 41.6771C15.507 42.906 18.3499 44.7676 20.7278 47.1455C23.1057 49.5234 24.9673 52.3664 26.1962 55.4966C27.4251 58.6269 27.9949 61.977 27.8699 65.3375C27.7448 61.977 28.3146 58.6269 29.5435 55.4966C30.7724 52.3664 32.634 49.5234 35.0119 47.1455C37.3898 44.7676 40.2328 42.906 43.363 41.6771C46.4933 40.4482 49.8434 39.8784 53.2039 40.0035C49.8434 40.1285 46.4933 39.5587 43.363 38.3298C40.2328 37.1009 37.3898 35.2393 35.0119 32.8614C32.634 30.4835 30.7724 27.6405 29.5435 24.5103C28.3146 21.3801 27.7448 18.0299 27.8699 14.6694Z" fill="#191919"/>
<path d="M53.5988 3.13519C53.6642 4.89468 53.3659 6.64875 52.7225 8.28768C52.079 9.92661 51.1043 11.4151 49.8593 12.6602C48.6143 13.9052 47.1258 14.8799 45.4868 15.5233C43.8479 16.1667 42.0938 16.465 40.3344 16.3996C42.0938 16.3341 43.8479 16.6324 45.4868 17.2759C47.1258 17.9193 48.6143 18.894 49.8593 20.139C51.1043 21.384 52.079 22.8725 52.7225 24.5115C53.3659 26.1504 53.6642 27.9045 53.5988 29.664C53.5333 27.9045 53.8316 26.1504 54.475 24.5115C55.1185 22.8725 56.0932 21.384 57.3382 20.139C58.5832 18.894 60.0717 17.9193 61.7106 17.2759C63.3496 16.6324 65.1036 16.3341 66.8631 16.3996C65.1036 16.465 63.3496 16.1667 61.7106 15.5233C60.0717 14.8799 58.5832 13.9052 57.3382 12.6601C56.0932 11.4151 55.1185 9.92661 54.475 8.28768C53.8316 6.64875 53.5333 4.89468 53.5988 3.13519Z" fill="#191919"/>
</svg>
