<svg viewBox="0 0 64 64" xml:space="preserve" xmlns="http://www.w3.org/2000/svg"><circle cx="32" cy="32" fill="#ffffff" r="32" class="fill-4f5d73"></circle><path d="M54 40c0 5.523-4.477 10-10 10s-10-4.477-10-10c0-10 10-18 10-18s10 8 10 18z" fill="#231f20" opacity=".2" class="fill-231f20"></path><path d="M54 38c0 5.523-4.477 10-10 10s-10-4.477-10-10c0-10 10-18 10-18s10 8 10 18z" fill="#ff3d3d" class="fill-c75c5c"></path><path d="M42 32c0 5.523-4.477 10-10 10s-10-4.477-10-10c0-10 10-18 10-18s10 8 10 18z" fill="#231f20" opacity=".2" class="fill-231f20"></path><path d="M42 30c0 5.523-4.477 10-10 10s-10-4.477-10-10c0-10 10-18 10-18s10 8 10 18z" fill="#4cbdff" class="fill-77b3d4"></path><path d="M30 40c0 5.523-4.477 10-10 10s-10-4.477-10-10c0-10 10-18 10-18s10 8 10 18z" fill="#231f20" opacity=".2" class="fill-231f20"></path><path d="M30 38c0 5.523-4.477 10-10 10s-10-4.477-10-10c0-10 10-18 10-18s10 8 10 18z" fill="#ffbc36" class="fill-f5cf87"></path></svg>